<?xml version="1.0" encoding="utf-8"?>
<!-- Generator: Adobe Illustrator 16.0.0, SVG Export Plug-In . SVG Version: 6.00 Build 0)  -->
<!DOCTYPE svg PUBLIC "-//W3C//DTD SVG 1.1//EN" "http://www.w3.org/Graphics/SVG/1.1/DTD/svg11.dtd">
<svg version="1.1" id="Layer_1" xmlns="http://www.w3.org/2000/svg" xmlns:xlink="http://www.w3.org/1999/xlink" x="0px" y="0px"
	 width="326.822px" height="155.336px" viewBox="0 0 326.822 155.336" enable-background="new 0 0 326.822 155.336"
	 xml:space="preserve">
<g>
	<path fill="#019547" d="M146.342,33.926h-25.913c-2.238,5.342-4.476,10.758-6.858,16.17h-3.826l19.708-46.343
		c0.864-2.021,2.093-3.175,3.826-3.175h0.434c1.731,0,3.03,1.154,3.897,3.175l19.346,46.343h-3.754L146.342,33.926z M121.873,30.462
		H144.9l-11.044-26.42h-0.723C129.235,12.778,125.624,21.583,121.873,30.462"/>
	<path fill="#019547" d="M177.531,47.642c-0.796,1.948-2.166,3.175-3.897,3.175H173.2c-1.732,0-3.104-1.227-3.898-3.175
		L149.74,1.298L152.987,0l20.069,47.354h0.79L193.63,0l3.245,1.298L177.531,47.642z"/>
	<polygon fill="#019547" points="280.979,0.578 280.979,50.097 277.659,50.097 246.114,6.642 246.114,50.097 242.648,50.097 
		242.648,0.578 245.968,0.578 277.516,44.033 277.516,0.578 	"/>
	<path fill="#019547" d="M326.822,4.043h-17.972V41.65c0,3.827,1.223,7.507,1.655,8.445h-3.679
		c-0.506-1.515-1.445-4.764-1.445-8.445V4.043h-17.902V0.579h39.343V4.043z"/>
	<path fill="#019547" d="M226.258,33.926h-25.914c-2.235,5.342-4.476,10.758-6.857,16.17h-3.825l19.705-46.343
		c0.868-2.021,2.092-3.175,3.825-3.175h0.436c1.732,0,3.032,1.154,3.897,3.175l19.345,46.343h-3.751L226.258,33.926z
		 M201.786,30.462h23.029l-11.045-26.42h-0.724C209.149,12.778,205.541,21.583,201.786,30.462"/>
	<path fill="#019547" d="M163.033,93.751v18.855h-3.454V93.825c-0.718-0.359-1.297-0.936-1.729-1.656l-18.063-27.922l2.879-1.798
		l18.28,28.209h0.649l18.275-28.209l2.953,1.798l-18.136,27.922C164.186,92.889,163.683,93.465,163.033,93.751"/>
	<path fill="#019547" d="M210.68,96.485h-25.839c-2.229,5.328-4.463,10.725-6.834,16.122h-3.816l19.647-46.202
		c0.863-2.014,2.087-3.165,3.814-3.165h0.43c1.729,0,3.023,1.151,3.888,3.165l19.287,46.202h-3.742L210.68,96.485z M186.281,93.032
		h22.958l-11.011-26.339h-0.721C193.622,75.4,190.024,84.18,186.281,93.032"/>
	<path fill="#019547" d="M230.474,112.607h-3.453V66.91c0-2.305,1.077-3.67,4.317-3.67h13.382c11.013,0,16.051,7.339,16.051,13.961
		c0,5.54-4.247,11.657-11.011,14.319l11.66,20.51c5.757,10.076,10.651,12.236,15.902,12.236v3.455
		c-6.691,0-12.232-2.376-19.359-14.755l-11.804-20.581c-1.15,0.215-2.301,0.287-3.668,0.287c-5.613,0-8.563-3.598-8.563-6.693
		c0-2.375,1.728-4.462,5.253-4.462c2.447,0,5.615,1.296,8.779,6.908c6.117-1.798,9.355-6.62,9.355-11.225
		c0-4.966-3.956-10.507-12.596-10.507h-14.246V112.607z M237.311,86.051c0,1.8,2.157,3.167,5.685,3.167c0.433,0,0.937,0,1.439-0.073
		c-1.727-2.947-3.813-4.388-5.254-4.388C237.958,84.757,237.311,85.478,237.311,86.051"/>
	<path fill="#019547" d="M285.961,63.24c15.475,0,22.89,8.922,22.89,24.323c0,15.399-7.704,25.044-23.176,25.044h-10.867
		c-3.237,0-4.317-1.366-4.317-3.671V66.908c0-2.301,1.08-3.668,4.317-3.668H285.961z M273.943,66.693v42.46h11.731
		c13.171,0,19.719-8.351,19.719-21.59c0-13.243-6.261-20.87-19.433-20.87H273.943z"/>
	<path fill="#8FC641" d="M19.762,86.171c0.099-0.157,0.151-0.253,0.151-0.253S19.804,85.719,19.762,86.171z"/>
	<path fill="#8EC641" d="M160.004,151.841c-2.017,0.236-4.168,0.255-5.988,1.024c-4.148,1.746-8.307,1.773-12.566,0.899
		c-7.439-1.528-15.058-4.666-21.586-8.68c-3.619-2.219-6.963-4.928-10.224-7.667c-2.462-2.072-9.817-9.217-16.3-15.49
		c6.22-2.417,14.537,0.859,18.277,6.199c-0.51-0.727,2.029-4.031,2.528-4.449c2.084-1.741,5.368-2.081,7.715-3.578
		c5.239-3.344,9.166-8.335,14.454-11.613c2.961-1.837,6.038-3.43,9.119-5.048c-5.005-1.014-10.337-0.533-15.337,0.28
		c-3.502,0.568-8.674,1.569-8.507-3.756c0.074-2.35,2.325-4.237,3.914-5.694c1.711-1.567,3.408-3.569,5.314-4.874
		c1.6-1.094,2.771-1.589,3.898-1.713c2.478-0.27-4.532-2.438-4.532-2.438s-1.403,0.323-2.688-0.186
		c-5.3-4.941-1.322-12.276,1.342-16.686c-3.259,1.694-11.183,2.76-6.71-3.947c-4.022,0.038-2.336-7.046-2.336-7.046
		s-7.373,7.565-9.073,2.932c-1.424,6.055-8.148,6.036-9.184,6.062c-2.091,0.629-6.112-4.871-6.112-4.871s-2.87,10.787-3.577,13.104
		c-0.706,2.317-3.232,7.141-5.353,7.865c-2.763-0.633-6.575-14.722-7.225-22.677c-0.649-7.955,3.266-12.089,3.266-12.089
		c-2.045,1.009-4.285,3.061-6.626,3.136c-4.517,0.144-6.36-5.193-6.765-8.803c-0.388-3.449-0.427-4.794-0.38-5.306
		c-0.715,1.14-3.941,5.703-8.703,3.693c-4.677-0.581-10.118-9.73-10.118-9.73s1.817,6.145-1.385,13.188
		c-3.203,7.043-7.152,3.729-7.152,3.729s4.644,8.645-0.766,14.963c-3.715,4.564-9.547-1.224-9.547-1.224
		c0.86,2.04,1.958,4.26,3.491,5.876c2.627,2.767,3.895,5.019,5.213,8.668c1.794,4.966,5.22,9.168,7.025,14.157
		c2.719,5.104,0.23,5.216-5.313,2.892c-3.344-1.495-5.053-1.859-4.946-6.101c0.236-1.035-5.255-6.907-9.903-11.648
		c-1.177-1.202-7.621-9.528-6.217-7.122c1.403,2.407-0.292,8.222-2.6,8.785C11.371,78.439,4.309,73.488,0,69.177
		c0.86,0.859,0.501,3.122,0.704,4.238c0.896,4.939,4.503,8.889,8.319,11.876c0.438,0.344,4.417,3.523,2.892,3.983
		c-1.395,0.417-4.97,0.382-4.97,0.382s2.387,2.205,6.615,7.719c4.229,5.51,19.699,13.607,21.923,18.085
		c2.223,4.478-9.534,4.267-9.534,4.267c2.369,1.962,4.861,3.82,7.459,5.463c2.327,1.474,4.836,2.596,7.142,4.115
		c5.309,3.5,10.562,5.824,17.067,5.722c2.558-0.041,6.676-0.764,6.896,2.89c0.255,4.271-4.497,6.087-6.107,9.313
		c2.692-2.426,6.69-2.577,10.082-3.135c3.934-0.647,7.827-1.786,11.232-3.912c4.145-2.587,4.251-7.005,6.196-11.005
		c1.307-2.686,3.769-4.824,6.145-6.567c4.882,4.703,9.705,9.387,11.031,10.522c6.308,5.404,12.538,10.975,20.174,14.455
		c7.259,3.312,15.078,7.08,23.127,7.602c2.342,0.152,4.736-0.183,7.084-0.48c1.845-0.232,3.588-0.464,5.422,0.27
		c2.059,0.826,2.793,0.239,2.776-1.951C161.668,151.973,160.769,151.75,160.004,151.841z"/>
	<g>
		<path fill="#019547" d="M138.742,135.231c0,1.36,0.444,2.672,0.602,3.012h-1.309c-0.209-0.551-0.524-1.703-0.524-3.012v-14.926
			h1.232V135.231z"/>
		<path fill="#019547" d="M150.785,130.045c-0.157-2.461-1.152-3.77-3.745-3.77c-1.755,0-3.169,0.863-3.823,2.174l-1.152-0.419
			c0.89-1.81,2.724-2.987,4.975-2.987c3.64,0,4.974,2.07,4.974,5.605v4.582c0,1.36,0.446,2.672,0.604,3.012h-1.311
			c-0.209-0.551-0.523-1.967-0.523-3.746c-1.049,2.75-3.353,4.269-5.106,4.269c-2.33,0-4.375-1.676-4.375-4.19
			C141.304,130.492,145.285,130.098,150.785,130.045z M150.706,131.276c-4.714,0.054-8.143,0.341-8.143,3.299
			c0,1.756,1.439,2.959,3.116,2.959C147.59,137.534,149.894,135.388,150.706,131.276z"/>
		<path fill="#019547" d="M164.974,130.281v4.95c0,1.36,0.443,2.672,0.602,3.012h-1.311c-0.211-0.551-0.523-1.703-0.523-3.012v-4.95
			c0-2.802-1.597-3.979-3.507-3.979c-1.468,0-3.145,0.812-4.452,2.802v9.14h-1.257v-9.61c0-1.519-0.602-2.934-0.602-2.934
			l1.021-0.393c0,0,0.495,0.915,0.731,1.938c1.389-1.491,3.065-2.2,4.559-2.2C162.771,125.043,164.974,126.695,164.974,130.281z"/>
		<path fill="#019547" d="M177.458,127.217v-6.938h1.232v14.952c0,1.36,0.47,2.672,0.627,3.012h-1.336
			c-0.184-0.42-0.391-1.52-0.498-2.515c-0.863,1.988-2.855,2.984-4.477,2.984c-3.77,0-5.604-3.378-5.604-6.781
			c0-3.404,1.834-6.809,5.631-6.809C174.554,125.123,176.227,125.621,177.458,127.217z M168.661,131.931
			c0,2.776,1.49,5.552,4.346,5.552c1.729,0,3.562-1.492,4.451-4.688v-4.004c-1.283-1.677-2.88-2.411-4.424-2.411
			C170.151,126.379,168.661,129.156,168.661,131.931z"/>
		<path fill="#019547" d="M182.349,133.686c-0.075,0.312-0.104,0.603-0.104,0.889c0,2.017,1.676,3.013,4.033,3.013
			c2.148,0,4.32-0.996,4.32-2.907c0-1.832-2.067-2.33-4.084-2.775c-2.356-0.496-4.871-1.047-4.871-3.3
			c0-2.384,2.356-3.562,4.738-3.562c2.018,0,4.137,0.942,4.925,2.987l-1.128,0.444c-0.574-1.519-2.195-2.148-3.797-2.148
			c-1.752,0-3.481,0.734-3.481,2.278c0,1.284,1.913,1.65,3.901,2.069c2.489,0.523,5.028,1.23,5.028,4.006
			c0,2.749-2.826,4.189-5.552,4.189c-3.062,0-5.262-1.492-5.262-4.452c0-0.312,0.024-0.627,0.076-0.968L182.349,133.686z"/>
		<path fill="#019547" d="M203.321,128.527c-0.812-1.388-2.201-2.251-3.746-2.251c-3.116,0-4.659,2.827-4.659,5.629
			c0,2.828,1.543,5.629,4.659,5.629c1.599,0,2.908-0.76,3.797-2.12l1.047,0.628c-1.125,1.754-2.827,2.724-4.844,2.724
			c-3.926,0-5.917-3.404-5.917-6.86c0-3.405,1.991-6.861,5.917-6.861c2.043,0,3.822,1.128,4.871,2.88L203.321,128.527z"/>
		<path fill="#019547" d="M215.232,130.045c-0.157-2.461-1.153-3.77-3.746-3.77c-1.755,0-3.167,0.863-3.821,2.174l-1.153-0.419
			c0.892-1.81,2.725-2.987,4.975-2.987c3.64,0,4.976,2.07,4.976,5.605v4.582c0,1.36,0.447,2.672,0.603,3.012h-1.308
			c-0.211-0.551-0.524-1.967-0.524-3.746c-1.049,2.75-3.353,4.269-5.106,4.269c-2.329,0-4.371-1.676-4.371-4.19
			C205.755,130.492,209.731,130.098,215.232,130.045z M215.154,131.276c-4.714,0.054-8.145,0.341-8.145,3.299
			c0,1.756,1.442,2.959,3.116,2.959C212.038,137.534,214.341,135.388,215.154,131.276z"/>
		<path fill="#019547" d="M230.808,131.931c0,3.403-1.832,6.781-5.602,6.781c-1.705,0-3.302-0.942-4.455-3.142v7.516h-1.254v-14.454
			c0-1.519-0.604-2.934-0.604-2.934l1.022-0.393c0,0,0.471,0.865,0.707,2.068c1.36-1.493,3.037-2.252,4.53-2.252
			C228.949,125.123,230.808,128.527,230.808,131.931z M220.751,128.815v4.007c0.971,3.271,2.75,4.661,4.455,4.661
			c2.852,0,4.346-2.775,4.346-5.552c0-2.775-1.519-5.577-4.399-5.577C223.712,126.354,222.115,127.192,220.751,128.815z"/>
		<path fill="#019547" d="M233.815,132.455c0.208,3.168,2.017,5.079,4.789,5.079c1.705,0,3.092-0.76,3.903-2.12l1.047,0.628
			c-1.125,1.729-2.827,2.724-4.95,2.724c-4.084,0-6.1-3.482-6.1-6.938c0-3.406,1.963-6.784,5.995-6.784
			c3.877,0,5.735,2.724,5.735,6.104c0,0.81-0.365,1.308-1.519,1.308H233.815z M233.815,131.225h9.19
			c0-2.698-1.493-4.949-4.506-4.949C235.832,126.276,234.048,128.213,233.815,131.225z"/>
		<path fill="#019547" d="M247.138,133.686c-0.078,0.312-0.104,0.603-0.104,0.889c0,2.017,1.676,3.013,4.029,3.013
			c2.149,0,4.321-0.996,4.321-2.907c0-1.832-2.067-2.33-4.084-2.775c-2.356-0.496-4.869-1.047-4.869-3.3
			c0-2.384,2.354-3.562,4.739-3.562c2.014,0,4.138,0.942,4.922,2.987l-1.125,0.444c-0.577-1.519-2.199-2.148-3.797-2.148
			c-1.755,0-3.482,0.734-3.482,2.278c0,1.284,1.91,1.65,3.901,2.069c2.487,0.523,5.026,1.23,5.026,4.006
			c0,2.749-2.826,4.189-5.553,4.189c-3.062,0-5.262-1.492-5.262-4.452c0-0.312,0.028-0.627,0.079-0.968L247.138,133.686z"/>
	</g>
</g>
</svg>
